<svg width="195" height="224" viewBox="0 0 195 224" fill="none" xmlns="http://www.w3.org/2000/svg">
<g id="mentorship thin">
<g id="hexagon">
<path id="Vector" d="M194.248 56.2L97.6021 0.400009L0.95401 56.2L0.95401 167.8L97.6021 223.6L194.25 167.8V56.2H194.248ZM3.43401 166.369L3.43401 57.631L97.6021 3.2644L191.768 57.631V166.369L97.6021 220.736L3.43401 166.369Z" fill="currentColor"/>
</g>
<g id="Mentorship">
<path id="Vector_2" d="M122.468 55C105.08 55 90.9355 69.145 90.9355 86.5323C90.9355 103.92 105.08 118.065 122.468 118.065C139.855 118.065 154 103.92 154 86.5323C154 69.145 139.855 55 122.468 55ZM128.032 66.129V69.8387H116.903V66.129H128.032ZM116.903 73.5484H128.032V75.4032C128.032 78.4708 125.535 80.9677 122.468 80.9677C119.4 80.9677 116.903 78.4708 116.903 75.4032V73.5484ZM122.468 84.6774C123.102 84.6774 123.723 84.6122 124.323 84.4899V88.3871H120.613V84.4899C121.212 84.6122 121.834 84.6774 122.468 84.6774ZM128.183 92.0968C132.588 92.0968 136.414 95.2313 137.277 99.5533L138.753 106.935H106.183L107.659 99.5533C108.521 95.2313 112.348 92.0968 116.753 92.0968H128.183ZM108.647 110.645H136.29C132.213 112.992 127.502 114.355 122.47 114.355C117.438 114.355 112.724 112.992 108.647 110.645ZM142.342 105.965L140.914 98.8242C139.705 92.776 134.349 88.3871 128.183 88.3871H128.032V82.8226H127.975C130.247 81.1308 131.742 78.4472 131.742 75.4032V66.129H135.452V62.4194H109.484V66.129H113.194V75.4032C113.194 78.4472 114.689 81.1308 116.96 82.8226H116.903V88.3871H116.753C110.586 88.3871 105.231 92.776 104.022 98.8242L102.593 105.965C97.6837 100.946 94.6452 94.0911 94.6452 86.5323C94.6452 71.1909 107.126 58.7097 122.468 58.7097C137.809 58.7097 150.29 71.1909 150.29 86.5323C150.29 94.0911 147.252 100.946 142.342 105.965V105.965Z" fill="currentColor"/>
<path id="Vector_3" d="M70.5323 106.935C53.145 106.935 39 121.08 39 138.468C39 155.855 53.145 170 70.5323 170C87.9196 170 102.065 155.855 102.065 138.468C102.065 121.08 87.9196 106.935 70.5323 106.935ZM70.5323 132.903C67.4647 132.903 64.9677 130.406 64.9677 127.339V123.629C64.9677 120.561 67.4647 118.065 70.5323 118.065C73.5998 118.065 76.0968 120.561 76.0968 123.629V127.339C76.0968 130.406 73.5998 132.903 70.5323 132.903ZM70.5323 136.613C71.1662 136.613 71.7875 136.548 72.3871 136.425V140.323H68.6774V136.425C69.277 136.548 69.8983 136.613 70.5323 136.613V136.613ZM76.2471 144.032C80.6524 144.032 84.4789 147.167 85.3411 151.489L86.8173 158.871H54.2472L55.7234 151.489C56.5856 147.167 60.4122 144.032 64.8174 144.032H76.2471ZM56.7115 162.581H84.3548C80.2774 164.927 75.566 166.29 70.5341 166.29C65.5021 166.29 60.7889 164.927 56.7115 162.581ZM90.4066 157.901L88.9783 150.76C87.7692 144.712 82.4139 140.323 76.2471 140.323H76.0968V134.758H76.0397C78.3112 133.066 79.8065 130.383 79.8065 127.339V123.629C79.8065 118.516 75.6457 114.355 70.5323 114.355C65.4188 114.355 61.2581 118.516 61.2581 123.629V127.339C61.2581 130.383 62.7533 133.066 65.0248 134.758H64.9677V140.323H64.8174C58.6506 140.323 53.2953 144.712 52.0862 150.76L50.658 157.901C45.7482 152.882 42.7097 146.027 42.7097 138.468C42.7097 123.126 55.1909 110.645 70.5323 110.645C85.8736 110.645 98.3548 123.126 98.3548 138.468C98.3548 146.027 95.3163 152.882 90.4066 157.901Z" fill="currentColor"/>
<path id="Vector_4" d="M137.306 121.774H129.887C128.864 121.774 128.032 122.603 128.032 123.629V127.339C128.032 132.843 124.015 137.427 118.758 138.314V134.758C118.758 134.009 118.305 133.33 117.613 133.045C116.918 132.753 116.123 132.916 115.592 133.447L106.318 142.721C105.592 143.446 105.592 144.618 106.318 145.344L115.592 154.618C115.946 154.972 116.421 155.161 116.903 155.161C117.142 155.161 117.383 155.117 117.613 155.02C118.305 154.735 118.758 154.055 118.758 153.306V149.521C130.165 148.575 139.161 138.987 139.161 127.339V123.629C139.161 122.603 138.33 121.774 137.306 121.774ZM135.452 127.339C135.452 137.567 127.131 145.887 116.903 145.887C115.88 145.887 115.048 146.716 115.048 147.742V148.829L110.252 144.032L115.048 139.236V140.323C115.048 141.349 115.88 142.177 116.903 142.177C125.085 142.177 131.742 135.521 131.742 127.339V125.484H135.452V127.339Z" fill="currentColor"/>
<path id="Vector_5" d="M55.6936 103.226H63.1129C64.1363 103.226 64.9677 102.397 64.9677 101.371V97.6613C64.9677 92.1565 68.9854 87.5729 74.2419 86.6862V90.2419C74.2419 90.9909 74.6948 91.6702 75.3867 91.9555C76.0787 92.2453 76.8757 92.0841 77.4082 91.5534L86.6824 82.2792C87.4079 81.5537 87.4079 80.3818 86.6824 79.6563L77.4082 70.3821C76.8757 69.8496 76.0787 69.6884 75.3867 69.98C74.6948 70.2653 74.2419 70.9445 74.2419 71.6935V75.4793C62.8349 76.4248 53.8387 86.0133 53.8387 97.6613V101.371C53.8387 102.397 54.6701 103.226 55.6936 103.226ZM57.5484 97.6613C57.5484 87.4334 65.8689 79.1129 76.0968 79.1129C77.1202 79.1129 77.9516 78.2842 77.9516 77.2581V76.1712L82.7481 80.9677L77.9516 85.7642V84.6774C77.9516 83.6513 77.1202 82.8226 76.0968 82.8226C67.9148 82.8226 61.2581 89.4793 61.2581 97.6613V99.5161H57.5484V97.6613Z" fill="currentColor"/>
</g>
</g>
</svg>
