<svg height="496pt" viewBox="0 0 496 496" width="496pt" xmlns="http://www.w3.org/2000/svg"><path d="m360 0c-74.992188 0-136 61.007812-136 136s61.007812 136 136 136 136-61.007812 136-136-61.007812-136-136-136zm24 48v16h-48v-16zm-48 32h48v8c0 13.230469-10.769531 24-24 24s-24-10.769531-24-24zm24 48c2.734375 0 5.414062-.28125 8-.808594v16.808594h-16v-16.808594c2.585938.527344 5.265625.808594 8 .808594zm24.648438 32c19 0 35.503906 13.519531 39.222656 32.160156l6.367187 31.839844h-140.476562l6.367187-31.839844c3.71875-18.640625 20.222656-32.160156 39.222656-32.160156zm-84.257813 80h119.226563c-17.585938 10.121094-37.90625 16-59.609376 16-21.703124 0-42.03125-5.878906-59.617187-16zm145.328125-20.183594-6.160156-30.800781c-5.214844-26.085937-28.3125-45.015625-54.910156-45.015625h-.648438v-24h-.246094c9.796875-7.296875 16.246094-18.871094 16.246094-32v-40h16v-16h-112v16h16v40c0 13.128906 6.449219 24.703125 16.246094 32h-.246094v24h-.648438c-26.597656 0-49.695312 18.929688-54.910156 45.015625l-6.160156 30.800781c-21.175781-21.648437-34.28125-51.214844-34.28125-83.816406 0-66.167969 53.832031-120 120-120s120 53.832031 120 120c0 32.601562-13.105469 62.167969-34.28125 83.816406zm0 0"/><path d="m136 224c-74.992188 0-136 61.007812-136 136s61.007812 136 136 136 136-61.007812 136-136-61.007812-136-136-136zm0 112c-13.230469 0-24-10.769531-24-24v-16c0-13.230469 10.769531-24 24-24s24 10.769531 24 24v16c0 13.230469-10.769531 24-24 24zm0 16c2.734375 0 5.414062-.28125 8-.808594v16.808594h-16v-16.808594c2.585938.527344 5.265625.808594 8 .808594zm24.648438 32c19 0 35.503906 13.519531 39.222656 32.160156l6.367187 31.839844h-140.476562l6.367187-31.839844c3.71875-18.640625 20.222656-32.160156 39.222656-32.160156zm-84.257813 80h119.226563c-17.585938 10.121094-37.90625 16-59.609376 16-21.703124 0-42.03125-5.878906-59.617187-16zm145.328125-20.183594-6.160156-30.800781c-5.214844-26.085937-28.3125-45.015625-54.910156-45.015625h-.648438v-24h-.246094c9.796875-7.296875 16.246094-18.871094 16.246094-32v-16c0-22.054688-17.945312-40-40-40s-40 17.945312-40 40v16c0 13.128906 6.449219 24.703125 16.246094 32h-.246094v24h-.648438c-26.597656 0-49.695312 18.929688-54.910156 45.015625l-6.160156 30.800781c-21.175781-21.648437-34.28125-51.214844-34.28125-83.816406 0-66.167969 53.832031-120 120-120s120 53.832031 120 120c0 32.601562-13.105469 62.167969-34.28125 83.816406zm0 0"/><path d="m424 288h-32c-4.414062 0-8 3.574219-8 8v16c0 23.742188-17.328125 43.511719-40 47.335938v-15.335938c0-3.230469-1.953125-6.160156-4.9375-7.390625-3-1.257813-6.429688-.554687-8.71875 1.734375l-40 40c-3.128906 3.128906-3.128906 8.183594 0 11.3125l40 40c1.527344 1.527344 3.578125 2.34375 5.65625 2.34375 1.03125 0 2.070312-.191406 3.0625-.609375 2.984375-1.230469 4.9375-4.160156 4.9375-7.390625v-16.328125c49.199219-4.078125 88-45.433594 88-95.671875v-16c0-4.425781-3.585938-8-8-8zm-8 24c0 44.113281-35.886719 80-80 80-4.414062 0-8 3.574219-8 8v4.6875l-20.6875-20.6875 20.6875-20.6875v4.6875c0 4.425781 3.585938 8 8 8 35.289062 0 64-28.710938 64-64v-8h16zm0 0"/><path d="m72 208h32c4.414062 0 8-3.574219 8-8v-16c0-23.742188 17.328125-43.511719 40-47.335938v15.335938c0 3.230469 1.953125 6.160156 4.9375 7.390625 2.984375 1.25 6.421875.554687 8.71875-1.734375l40-40c3.128906-3.128906 3.128906-8.183594 0-11.3125l-40-40c-2.296875-2.296875-5.734375-2.992188-8.71875-1.734375-2.984375 1.230469-4.9375 4.160156-4.9375 7.390625v16.328125c-49.199219 4.078125-88 45.433594-88 95.671875v16c0 4.425781 3.585938 8 8 8zm8-24c0-44.113281 35.886719-80 80-80 4.414062 0 8-3.574219 8-8v-4.6875l20.6875 20.6875-20.6875 20.6875v-4.6875c0-4.425781-3.585938-8-8-8-35.289062 0-64 28.710938-64 64v8h-16zm0 0"/></svg>