<svg width="195" height="224" viewBox="0 0 195 224" fill="none" xmlns="http://www.w3.org/2000/svg">
<g id="projects thin">
<g id="hexagon">
<path id="Vector" d="M194.248 56.2L97.6021 0.400009L0.95401 56.2L0.95401 167.8L97.6021 223.6L194.25 167.8V56.2H194.248ZM3.43401 166.369L3.43401 57.631L97.6021 3.2644L191.768 57.631V166.369L97.6021 220.736L3.43401 166.369Z" fill="currentColor"/>
</g>
<g id="projects">
<g id="Group">
<g id="Group_2">
<path id="Vector_2" d="M153.363 85.198C153.363 85.198 153.363 85.198 153.362 85.198L153.358 85.1942L145.936 84.1351C144.892 83.9865 144.167 83.0202 144.316 81.9769C144.387 81.4756 144.655 81.0233 145.06 80.7194L151.059 76.2199C151.902 75.5876 152.073 74.3916 151.441 73.5484L144.571 64.3891C143.939 63.5459 142.743 63.3751 141.9 64.0074L135.902 68.507C135.063 69.1441 133.866 68.98 133.229 68.1404C132.919 67.7327 132.787 67.2177 132.861 66.7113L133.922 59.2885C134.071 58.2451 133.347 57.2784 132.304 57.1286C132.303 57.1286 132.302 57.1284 132.302 57.1284L120.974 55.5102C119.931 55.3604 118.964 56.0846 118.814 57.1279C118.814 57.1281 118.814 57.1281 118.814 57.1284L117.753 64.5513C117.605 65.5946 116.639 66.3199 115.595 66.1713C115.094 66.1 114.642 65.8321 114.338 65.4271L109.84 59.4278C109.208 58.5846 108.012 58.4138 107.169 59.0461L101.434 63.3491C98.8403 63.0734 96.2241 63.0734 93.6299 63.3491C76.6408 65.2909 63.318 78.8396 61.6619 95.8591C61.6104 96.3991 61.5913 96.9353 61.5646 97.4715H60.9921C60.0867 97.4732 59.3069 98.111 59.1259 98.9981L57.8073 105.268L52.5254 101.626C51.7674 101.103 50.7436 101.196 50.0925 101.847L44.3679 107.572C43.7177 108.223 43.6246 109.245 44.1465 110.003L47.7721 115.275L41.4998 116.594C40.6226 116.786 39.9981 117.564 40 118.462V126.095C39.9995 126.997 40.6319 127.777 41.5151 127.963L47.7874 129.281L44.1618 134.554C43.6399 135.311 43.7329 136.334 44.3831 136.985L50.1077 142.709C50.7589 143.36 51.7827 143.454 52.5407 142.931L57.813 139.295L59.1316 145.568C59.3127 146.455 60.0924 147.093 60.9978 147.094H68.6306C69.5332 147.095 70.3127 146.462 70.4988 145.579L71.8173 139.307L77.0897 142.932C77.8475 143.454 78.8698 143.361 79.5207 142.711L82.4842 139.738V145.176C82.4927 147.891 83.947 150.395 86.3006 151.748V162.35C86.3006 166.566 89.7179 169.983 93.9333 169.983H101.566C105.782 169.983 109.199 166.566 109.199 162.35V151.748C111.552 150.395 113.007 147.891 113.015 145.176V137.624C113.067 134.446 114.73 131.512 117.429 129.835C119.013 128.807 120.514 127.659 121.921 126.4L119.375 123.557C118.117 124.684 116.773 125.712 115.355 126.631C111.566 129.009 109.246 133.151 109.199 137.624V145.176C109.199 147.284 107.49 148.993 105.383 148.993H90.117C88.0091 148.993 86.3006 147.284 86.3006 145.176V137.465C86.2564 133.077 83.9735 129.015 80.2477 126.696C65.1236 117.192 60.5668 97.228 70.0701 82.1038C75.9665 72.72 86.2569 67.0086 97.3395 66.969C97.3111 67.0369 97.2861 67.1063 97.2651 67.1769C97.1942 67.6779 97.3254 68.1866 97.6295 68.5909L102.127 74.5884C102.601 75.2021 102.647 76.0451 102.242 76.7065C101.851 77.372 101.097 77.735 100.333 77.6243L92.9106 76.5634C91.8672 76.4138 90.9005 77.1382 90.7507 78.1813C90.7507 78.182 90.7505 78.1827 90.7505 78.1834L89.1304 89.5162C88.9809 90.5593 89.7053 91.5263 90.7483 91.6761C90.749 91.6761 90.7498 91.6763 90.7505 91.6763L98.1734 92.7373C99.2167 92.8859 99.942 93.8521 99.7934 94.8954C99.7221 95.3968 99.4542 95.8491 99.0492 96.153L93.0518 100.651C92.2086 101.283 92.0378 102.479 92.6701 103.322L99.5396 112.481C100.172 113.325 101.368 113.495 102.211 112.863L108.21 108.365C109.054 107.734 110.25 107.907 110.881 108.751C111.183 109.155 111.313 109.662 111.243 110.161L110.184 117.584C110.034 118.627 110.758 119.594 111.801 119.744C111.801 119.744 111.801 119.744 111.802 119.744L123.136 121.364C123.226 121.376 123.316 121.381 123.405 121.381C124.356 121.382 125.162 120.685 125.297 119.744L126.356 112.321C126.504 111.278 127.47 110.552 128.514 110.701C129.015 110.772 129.467 111.04 129.771 111.445L134.271 117.443C134.903 118.286 136.099 118.457 136.942 117.824L146.102 110.955C146.945 110.323 147.116 109.127 146.483 108.283L141.986 102.286C141.514 101.671 141.468 100.83 141.871 100.168C142.253 99.4935 143.014 99.1281 143.779 99.2519L151.202 100.311C152.245 100.461 153.213 99.7363 153.362 98.6932C153.362 98.693 153.362 98.693 153.362 98.6928L154.98 87.3581C155.13 86.3148 154.406 85.3478 153.363 85.198ZM90.117 152.809H105.383V156.626H90.117V152.809V152.809ZM90.117 160.442H105.383V162.35C105.383 164.458 103.674 166.167 101.566 166.167H93.9333C91.8255 166.167 90.117 164.458 90.117 162.35V160.442V160.442ZM74.9258 127.535C75.9677 128.387 77.0563 129.181 78.1869 129.911C79.9899 131.05 81.3471 132.774 82.0319 134.794L77.9388 138.879L73.9755 136.147C72.24 134.951 69.8636 135.388 68.6674 137.124C68.3807 137.54 68.1793 138.009 68.0753 138.504L67.0754 143.268H62.5397L61.5398 138.511C61.1056 136.449 59.0818 135.128 57.0192 135.563C56.5248 135.667 56.0558 135.868 55.6396 136.155L51.6744 138.879L48.1976 135.41L50.9283 131.449C52.1254 129.714 51.6894 127.337 49.9546 126.14C49.5381 125.853 49.0687 125.651 48.5735 125.547L43.8164 124.545V120.011L48.5735 119.009C50.6354 118.572 51.9525 116.546 51.5153 114.484C51.4115 113.995 51.2128 113.531 50.9302 113.119L48.1976 109.146L51.6744 105.677L55.6415 108.409C57.3777 109.604 59.7542 109.165 60.9489 107.429C61.2352 107.013 61.436 106.545 61.5398 106.051L61.8737 104.463C62.1795 106.662 62.6859 108.828 63.3869 110.934C57.1082 111.682 52.6251 117.379 53.3736 123.658C54.1221 129.937 59.819 134.42 66.0977 133.671C69.8774 133.22 73.186 130.921 74.9258 127.535ZM71.9623 124.847C70.5374 128.807 66.1717 130.863 62.211 129.438C58.2503 128.013 56.1947 123.647 57.6194 119.687C58.7094 116.657 61.5863 114.639 64.8064 114.645C64.8312 114.645 64.8541 114.645 64.8789 114.645C66.6337 118.429 69.0302 121.88 71.9623 124.847ZM149.844 96.2579L144.31 95.4679C141.18 95.0209 138.28 97.196 137.833 100.326C137.619 101.829 138.01 103.355 138.921 104.57L142.274 109.041L136.168 113.621L132.813 109.152C130.916 106.622 127.328 106.109 124.799 108.006C123.584 108.916 122.781 110.272 122.566 111.775L121.793 117.317L114.238 116.237L115.028 110.703C115.477 107.573 113.303 104.673 110.173 104.225C108.669 104.009 107.142 104.401 105.926 105.312L101.455 108.665L96.8758 102.559L101.345 99.2042C103.874 97.3074 104.387 93.7193 102.491 91.19C101.58 89.9754 100.224 89.1723 98.721 88.9571L93.1872 88.1671L94.2673 80.6126L99.8011 81.4026C102.931 81.8508 105.831 79.6768 106.279 76.5472C106.495 75.0433 106.103 73.5157 105.192 72.3005L101.828 67.8257L107.934 63.2461L111.288 67.717C113.185 70.2465 116.773 70.7596 119.303 68.8628C120.517 67.9522 121.32 66.5961 121.535 65.0932L122.325 59.5594L129.88 60.6376L129.09 66.1713C128.643 69.3013 130.818 72.2008 133.948 72.6478C135.451 72.8624 136.978 72.4712 138.192 71.5601L142.663 68.2074L147.243 74.3136L142.772 77.6682C140.242 79.565 139.729 83.1531 141.626 85.6824C142.537 86.897 143.893 87.7001 145.396 87.9153L150.929 88.7053L149.844 96.2579Z" fill="currentColor"/>
</g>
</g>
<g id="Group_3">
<g id="Group_4">
<path id="Vector_3" d="M122.053 73.1687C113.622 73.1687 106.787 80.0034 106.787 88.4343C106.787 96.8652 113.622 103.7 122.053 103.7C130.483 103.7 137.318 96.8652 137.318 88.4343C137.309 80.0072 130.48 73.178 122.053 73.1687ZM122.053 99.8835C115.729 99.8835 110.603 94.7576 110.603 88.4343C110.603 82.111 115.729 76.9851 122.053 76.9851C128.376 76.9851 133.502 82.111 133.502 88.4343C133.494 94.7545 128.373 99.8761 122.053 99.8835Z" fill="currentColor"/>
</g>
</g>
<g id="Group_5">
<g id="Group_6">
<path id="Vector_4" d="M99.658 139.452H95.8415V145.176H99.658V139.452Z" fill="currentColor"/>
</g>
</g>
<g id="Group_7">
<g id="Group_8">
<path id="Vector_5" d="M89.4033 120.711C77.6237 116.11 71.8049 102.83 76.4068 91.0507C78.19 86.4862 81.3903 82.6143 85.5373 80.0039L83.4974 76.7752C71.014 84.6396 67.2694 101.135 75.1338 113.618C78.1795 118.453 82.6952 122.184 88.0179 124.263C92.7293 126.068 95.8403 130.59 95.8415 135.635H99.6579C99.6639 129.016 95.5846 123.079 89.4033 120.711Z" fill="currentColor"/>
</g>
</g>
<g id="Group_9">
<g id="Group_10">
<path id="Vector_6" d="M147.363 126.094H134.006V129.911H147.363V126.094Z" fill="currentColor"/>
</g>
</g>
<g id="Group_11">
<g id="Group_12">
<path id="Vector_7" d="M133.319 136.076L130.876 139.008L142.326 148.548L144.769 145.616L133.319 136.076Z" fill="currentColor"/>
</g>
</g>
<g id="Group_13">
<g id="Group_14">
<path id="Vector_8" d="M126.373 141.36H122.556V154.717H126.373V141.36Z" fill="currentColor"/>
</g>
</g>
<g id="Group_15">
<g id="Group_16">
<path id="Vector_9" d="M57.213 84.1701L41.9485 87.9858L42.8735 91.6862L58.1381 87.8705L57.213 84.1701Z" fill="currentColor"/>
</g>
</g>
<g id="Group_17">
<g id="Group_18">
<path id="Vector_10" d="M47.3353 65.39L45.1183 68.4939L58.4746 78.0339L60.6916 74.93L47.3353 65.39Z" fill="currentColor"/>
</g>
</g>
<g id="Group_19">
<g id="Group_20">
<path id="Vector_11" d="M65.1653 55.0159L61.468 55.9612L65.3707 71.2256L69.068 70.2803L65.1653 55.0159Z" fill="currentColor"/>
</g>
</g>
</g>
</g>
</svg>
